<svg width="18" height="18" viewBox="0 0 18 18" fill="none" xmlns="http://www.w3.org/2000/svg">
<g id="Frame" clip-path="url(#clip0_343_679)">
<path id="Vector" d="M3 14.25C3 14.6478 3.15804 15.0294 3.43934 15.3107C3.72064 15.592 4.10218 15.75 4.5 15.75C4.89782 15.75 5.27936 15.592 5.56066 15.3107C5.84196 15.0294 6 14.6478 6 14.25C6 13.8522 5.84196 13.4706 5.56066 13.1893C5.27936 12.908 4.89782 12.75 4.5 12.75C4.10218 12.75 3.72064 12.908 3.43934 13.1893C3.15804 13.4706 3 13.8522 3 14.25Z" stroke="#262626" stroke-width="1.5" stroke-linecap="round" stroke-linejoin="round"/>
<path id="Vector_2" d="M11.25 14.25C11.25 14.6478 11.408 15.0294 11.6893 15.3107C11.9706 15.592 12.3522 15.75 12.75 15.75C13.1478 15.75 13.5294 15.592 13.8107 15.3107C14.092 15.0294 14.25 14.6478 14.25 14.25C14.25 13.8522 14.092 13.4706 13.8107 13.1893C13.5294 12.908 13.1478 12.75 12.75 12.75C12.3522 12.75 11.9706 12.908 11.6893 13.1893C11.408 13.4706 11.25 13.8522 11.25 14.25Z" stroke="#262626" stroke-width="1.5" stroke-linecap="round" stroke-linejoin="round"/>
<path id="Vector_3" d="M12.75 12.75H4.5V2.25H3" stroke="#262626" stroke-width="1.5" stroke-linecap="round" stroke-linejoin="round"/>
<path id="Vector_4" d="M4.5 3.75L15 4.5L14.25 9.75H4.5" stroke="#262626" stroke-width="1.5" stroke-linecap="round" stroke-linejoin="round"/>
</g>
<defs>
<clipPath id="clip0_343_679">
<rect width="18" height="18" fill="white"/>
</clipPath>
</defs>
</svg>
