<svg width="25" height="24" viewBox="0 0 25 24" fill="none" xmlns="http://www.w3.org/2000/svg">
<g clip-path="url(#clip0_343_992)">
<path d="M3.61523 10C3.61523 10.9193 3.79629 11.8295 4.14808 12.6788C4.49986 13.5281 5.01548 14.2997 5.66549 14.9497C6.3155 15.5998 7.08717 16.1154 7.93645 16.4672C8.78573 16.8189 9.69598 17 10.6152 17C11.5345 17 12.4447 16.8189 13.294 16.4672C14.1433 16.1154 14.915 15.5998 15.565 14.9497C16.215 14.2997 16.7306 13.5281 17.0824 12.6788C17.4342 11.8295 17.6152 10.9193 17.6152 10C17.6152 9.08075 17.4342 8.1705 17.0824 7.32122C16.7306 6.47194 16.215 5.70026 15.565 5.05025C14.915 4.40024 14.1433 3.88463 13.294 3.53284C12.4447 3.18106 11.5345 3 10.6152 3C9.69598 3 8.78573 3.18106 7.93645 3.53284C7.08717 3.88463 6.3155 4.40024 5.66549 5.05025C5.01548 5.70026 4.49986 6.47194 4.14808 7.32122C3.79629 8.1705 3.61523 9.08075 3.61523 10Z" stroke="#262626" stroke-width="1.5" stroke-linecap="round" stroke-linejoin="round"/>
<path d="M21.6152 21L15.6152 15" stroke="#262626" stroke-width="1.5" stroke-linecap="round" stroke-linejoin="round"/>
</g>
<defs>
<clipPath id="clip0_343_992">
<rect width="24" height="24" fill="white" transform="translate(0.615234)"/>
</clipPath>
</defs>
</svg>
