<svg width="25" height="24" viewBox="0 0 25 24" fill="none" xmlns="http://www.w3.org/2000/svg">
<g clip-path="url(#clip0_304_2956)">
<path d="M9.66602 11C9.66602 11.7956 9.98209 12.5587 10.5447 13.1213C11.1073 13.6839 11.8704 14 12.666 14C13.4617 14 14.2247 13.6839 14.7873 13.1213C15.3499 12.5587 15.666 11.7956 15.666 11C15.666 10.2044 15.3499 9.44129 14.7873 8.87868C14.2247 8.31607 13.4617 8 12.666 8C11.8704 8 11.1073 8.31607 10.5447 8.87868C9.98209 9.44129 9.66602 10.2044 9.66602 11Z" stroke="#262626" stroke-width="1.5" stroke-linecap="round" stroke-linejoin="round"/>
<path d="M18.323 16.6572L14.08 20.9002C13.705 21.2748 13.1966 21.4853 12.6665 21.4853C12.1364 21.4853 11.628 21.2748 11.253 20.9002L7.00902 16.6572C5.89024 15.5384 5.12836 14.1129 4.81971 12.5611C4.51106 11.0092 4.66951 9.40071 5.27502 7.93893C5.88054 6.47714 6.90592 5.22774 8.2215 4.3487C9.53708 3.46967 11.0838 3.00049 12.666 3.00049C14.2483 3.00049 15.795 3.46967 17.1105 4.3487C18.4261 5.22774 19.4515 6.47714 20.057 7.93893C20.6625 9.40071 20.821 11.0092 20.5123 12.5611C20.2037 14.1129 19.4418 15.5384 18.323 16.6572Z" stroke="#262626" stroke-width="1.5" stroke-linecap="round" stroke-linejoin="round"/>
</g>
<defs>
<clipPath id="clip0_304_2956">
<rect width="24" height="24" fill="white" transform="translate(0.666016)"/>
</clipPath>
</defs>
</svg>
