<svg width="119" height="40" viewBox="0 0 119 40" fill="none" xmlns="http://www.w3.org/2000/svg">
<g id="Logo" clip-path="url(#clip0_304_2902)">
<g id="Vector">
<path d="M54.2181 33.1665C54.0886 32.9734 53.8884 32.8121 53.6187 32.6825C53.349 32.553 53.0028 32.4293 52.5789 32.3139C52.2303 32.2127 51.9477 32.1173 51.7299 32.0278C51.5132 31.9383 51.3542 31.8335 51.2541 31.7146C51.154 31.5956 51.1034 31.4461 51.1034 31.2659C51.1034 30.9856 51.2106 30.7796 51.4249 30.6465C51.6392 30.5146 51.9183 30.4487 52.2621 30.4487C52.606 30.4487 52.8757 30.5228 53.0876 30.6712C53.2984 30.8184 53.4209 31.0009 53.4527 31.2188C53.4739 31.2765 53.5033 31.3165 53.5433 31.3377C53.5834 31.3589 53.6211 31.3695 53.6587 31.3695H54.0791C54.1368 31.3695 54.1792 31.3519 54.2063 31.3177C54.2322 31.2836 54.2452 31.2471 54.2452 31.2106C54.2405 31.0516 54.1957 30.8891 54.1109 30.7219C54.0261 30.5558 53.9013 30.3992 53.7376 30.2544C53.574 30.1083 53.3691 29.9918 53.1229 29.9046C52.8768 29.8175 52.5895 29.7739 52.2621 29.7739C51.8488 29.7739 51.4991 29.8398 51.2106 29.9729C50.9221 30.1048 50.7007 30.2838 50.5476 30.5075C50.3945 30.7325 50.318 30.988 50.318 31.2741C50.318 31.5756 50.3792 31.8241 50.504 32.0196C50.6288 32.215 50.8172 32.3799 51.0716 32.5118C51.326 32.6437 51.6451 32.7661 52.0313 32.8768C52.4023 32.9828 52.7037 33.0805 52.9369 33.17C53.1689 33.2607 53.342 33.362 53.4562 33.4762C53.5704 33.5893 53.6269 33.7388 53.6269 33.9249C53.6269 34.1945 53.5198 34.41 53.3055 34.5714C53.0912 34.7327 52.7567 34.8128 52.301 34.8128C52.0054 34.8128 51.7628 34.7715 51.5756 34.6903C51.3872 34.6079 51.2423 34.5054 51.1387 34.3806C51.0363 34.2558 50.9715 34.131 50.9444 34.0038C50.9338 33.9614 50.9126 33.9249 50.8808 33.8919C50.849 33.8613 50.8019 33.8448 50.7383 33.8448H50.3333C50.2862 33.8448 50.2449 33.8625 50.2108 33.8966C50.1766 33.9308 50.159 33.9696 50.159 34.012C50.1696 34.2652 50.2579 34.5054 50.4251 34.7292C50.5911 34.9553 50.8314 35.1366 51.1434 35.2767C51.4555 35.4169 51.8417 35.4875 52.301 35.4875C52.7296 35.4875 53.1017 35.4251 53.4162 35.3015C53.7318 35.1766 53.9755 34.9965 54.151 34.761C54.3253 34.5266 54.4124 34.2416 54.4124 33.9084C54.4124 33.6069 54.3476 33.3596 54.2181 33.1665Z" fill="#25CE49"/>
<path d="M62.3634 33.5516H61.9277C61.8794 33.5516 61.8382 33.5645 61.8041 33.5904C61.7699 33.6175 61.7452 33.6646 61.7287 33.7341C61.6392 34.1463 61.4708 34.4301 61.2247 34.5831C60.9786 34.7362 60.6712 34.8128 60.3003 34.8128C59.8775 34.8128 59.5419 34.6927 59.2923 34.4524C59.0438 34.211 58.9096 33.826 58.8884 33.2972C58.8719 32.8427 58.8719 32.3976 58.8884 31.9642C58.9096 31.4355 59.0438 31.0504 59.2923 30.8102C59.5419 30.5688 59.8775 30.4487 60.3003 30.4487C60.6712 30.4487 60.9786 30.5252 61.2247 30.6783C61.4708 30.8325 61.6392 31.1152 61.7287 31.5273C61.7452 31.5968 61.7699 31.6439 61.8041 31.671C61.8382 31.6969 61.8794 31.7098 61.9277 31.7098H62.3634C62.4117 31.7098 62.4517 31.6945 62.4871 31.6627C62.5212 31.6309 62.5353 31.5909 62.5306 31.5438C62.52 31.3212 62.467 31.1057 62.3716 30.8973C62.2763 30.6877 62.1373 30.4993 61.9548 30.3297C61.7723 30.1602 61.5438 30.0259 61.2683 29.9246C60.9939 29.8245 60.6736 29.7739 60.3085 29.7739C59.8222 29.7739 59.4183 29.8634 59.098 30.0436C58.7777 30.2237 58.5363 30.4746 58.3726 30.7972C58.2077 31.1211 58.1182 31.4955 58.1029 31.9242C58.097 32.1514 58.0947 32.3905 58.0947 32.639C58.0947 32.8874 58.097 33.1206 58.1029 33.3373C58.1182 33.7659 58.2077 34.1415 58.3726 34.4642C58.5363 34.7869 58.7777 35.0377 59.098 35.2179C59.4183 35.398 59.8222 35.4875 60.3085 35.4875C60.6736 35.4875 60.9939 35.4369 61.2683 35.3368C61.5438 35.2367 61.7723 35.1013 61.9548 34.9317C62.1373 34.7633 62.2763 34.5737 62.3716 34.3653C62.467 34.1557 62.52 33.9402 62.5306 33.7176C62.5353 33.6705 62.5212 33.6305 62.4871 33.5987C62.4517 33.5669 62.4117 33.5516 62.3634 33.5516Z" fill="#25CE49"/>
<path d="M67.1844 29.9046C67.1503 29.8705 67.1067 29.854 67.0537 29.854H66.6333C66.5744 29.854 66.5297 29.8705 66.4979 29.9046C66.4661 29.9399 66.4508 29.9835 66.4508 30.0353V35.2261C66.4508 35.2791 66.4661 35.3227 66.4979 35.3568C66.5297 35.391 66.5744 35.4086 66.6333 35.4086H67.0537C67.1067 35.4086 67.1503 35.391 67.1844 35.3568C67.2186 35.3227 67.2362 35.2791 67.2362 35.2261V30.0353C67.2362 29.9835 67.2186 29.9399 67.1844 29.9046Z" fill="#25CE49"/>
<path d="M75.1319 34.781C75.1001 34.7492 75.0554 34.7339 74.9965 34.7339H72.235V32.9322H74.7586C74.8175 32.9322 74.8622 32.9157 74.894 32.8804C74.9258 32.8462 74.9411 32.8026 74.9411 32.7496V32.4564C74.9411 32.3976 74.9258 32.3516 74.894 32.3175C74.8622 32.2833 74.8175 32.2657 74.7586 32.2657H72.235V30.5276H74.9341C74.9918 30.5276 75.0365 30.5122 75.0683 30.4805C75.1001 30.4487 75.1154 30.4039 75.1154 30.345V30.0436C75.1154 29.9859 75.1001 29.9399 75.0683 29.9046C75.0365 29.8705 74.9918 29.854 74.9341 29.854H71.6557C71.598 29.854 71.5532 29.8705 71.5214 29.9046C71.4896 29.9399 71.4732 29.9859 71.4732 30.0436V35.2261C71.4732 35.2791 71.4896 35.3227 71.5214 35.3568C71.5532 35.391 71.598 35.4086 71.6557 35.4086H74.9965C75.0554 35.4086 75.1001 35.391 75.1319 35.3568C75.1637 35.3227 75.179 35.2791 75.179 35.2261V34.9164C75.179 34.8575 75.1637 34.8128 75.1319 34.781Z" fill="#25CE49"/>
<path d="M83.2219 29.9046C83.1877 29.8705 83.1418 29.854 83.0829 29.854H82.7026C82.6437 29.854 82.5989 29.8705 82.5671 29.9046C82.5353 29.9399 82.52 29.9859 82.52 30.0436V34.012L79.8846 29.9647C79.8799 29.9482 79.8611 29.9258 79.8293 29.8964C79.7975 29.8681 79.7504 29.854 79.6868 29.854H79.3217C79.264 29.854 79.2181 29.8705 79.1863 29.9046C79.1545 29.9399 79.1392 29.9859 79.1392 30.0436V35.2261C79.1392 35.2791 79.1545 35.3227 79.1863 35.3568C79.2181 35.391 79.264 35.4086 79.3217 35.4086H79.7021C79.761 35.4086 79.8069 35.391 79.841 35.3568C79.8764 35.3227 79.8929 35.2791 79.8929 35.2261V31.2894L82.52 35.2967C82.5306 35.3073 82.5506 35.3285 82.5789 35.3603C82.6083 35.3921 82.6519 35.4086 82.7096 35.4086H83.0911C83.1441 35.4086 83.1877 35.3898 83.2219 35.3521C83.256 35.3156 83.2737 35.2708 83.2737 35.2179V30.0436C83.2737 29.9859 83.256 29.9399 83.2219 29.9046Z" fill="#25CE49"/>
<path d="M91.1576 29.9046C91.1234 29.8705 91.0763 29.854 91.0186 29.854H87.1938C87.1408 29.854 87.0973 29.8705 87.0631 29.9046C87.0278 29.9399 87.0113 29.9859 87.0113 30.0436V30.3768C87.0113 30.4298 87.0278 30.4734 87.0631 30.5075C87.0973 30.5429 87.1408 30.5594 87.1938 30.5594H88.7176V35.2261C88.7176 35.2791 88.7341 35.3227 88.7683 35.3568C88.8036 35.391 88.8472 35.4086 88.9002 35.4086H89.3123C89.3712 35.4086 89.4171 35.391 89.4513 35.3568C89.4854 35.3227 89.5031 35.2791 89.5031 35.2261V30.5594H91.0186C91.0763 30.5594 91.1234 30.5429 91.1576 30.5075C91.1917 30.4734 91.2094 30.4298 91.2094 30.3768V30.0436C91.2094 29.9859 91.1917 29.9399 91.1576 29.9046Z" fill="#25CE49"/>
<path d="M95.6889 29.9046C95.6547 29.8705 95.61 29.854 95.5582 29.854H95.1366C95.0789 29.854 95.0342 29.8705 95.0024 29.9046C94.9706 29.9399 94.9541 29.9835 94.9541 30.0353V35.2261C94.9541 35.2791 94.9706 35.3227 95.0024 35.3568C95.0342 35.391 95.0789 35.4086 95.1366 35.4086H95.5582C95.61 35.4086 95.6547 35.391 95.6889 35.3568C95.723 35.3227 95.7407 35.2791 95.7407 35.2261V30.0353C95.7407 29.9835 95.723 29.9399 95.6889 29.9046Z" fill="#25CE49"/>
<path d="M103.533 29.9046C103.501 29.8705 103.456 29.854 103.399 29.854H100.16C100.102 29.854 100.057 29.8705 100.025 29.9046C99.9941 29.9399 99.9776 29.9859 99.9776 30.0436V35.2261C99.9776 35.2791 99.9941 35.3227 100.025 35.3568C100.057 35.391 100.102 35.4086 100.16 35.4086H100.557C100.615 35.4086 100.662 35.391 100.696 35.3568C100.73 35.3227 100.748 35.2791 100.748 35.2261V33.0829H103.24C103.297 33.0829 103.342 33.0664 103.374 33.0311C103.406 32.9969 103.422 32.9534 103.422 32.9004V32.5836C103.422 32.5247 103.406 32.4788 103.374 32.4447C103.342 32.4105 103.297 32.3928 103.24 32.3928H100.748V30.544H103.399C103.456 30.544 103.501 30.5276 103.533 30.4958C103.565 30.464 103.58 30.4192 103.58 30.3615V30.0436C103.58 29.9859 103.565 29.9399 103.533 29.9046Z" fill="#25CE49"/>
<path d="M108.203 29.9046C108.169 29.8705 108.124 29.854 108.072 29.854H107.651C107.593 29.854 107.548 29.8705 107.517 29.9046C107.485 29.9399 107.469 29.9835 107.469 30.0353V35.2261C107.469 35.2791 107.485 35.3227 107.517 35.3568C107.548 35.391 107.593 35.4086 107.651 35.4086H108.072C108.124 35.4086 108.169 35.391 108.203 35.3568C108.237 35.3227 108.255 35.2791 108.255 35.2261V30.0353C108.255 29.9835 108.237 29.9399 108.203 29.9046Z" fill="#25CE49"/>
<path d="M116.547 33.5516H116.11C116.063 33.5516 116.022 33.5645 115.988 33.5904C115.953 33.6175 115.928 33.6646 115.913 33.7341C115.822 34.1463 115.655 34.4301 115.409 34.5831C115.163 34.7362 114.854 34.8128 114.484 34.8128C114.06 34.8128 113.725 34.6927 113.476 34.4524C113.228 34.211 113.092 33.826 113.071 33.2972C113.056 32.8427 113.056 32.3976 113.071 31.9642C113.092 31.4355 113.228 31.0504 113.476 30.8102C113.725 30.5688 114.06 30.4487 114.484 30.4487C114.854 30.4487 115.163 30.5252 115.409 30.6783C115.655 30.8325 115.822 31.1152 115.913 31.5273C115.928 31.5968 115.953 31.6439 115.988 31.671C116.022 31.6969 116.063 31.7098 116.11 31.7098H116.547C116.594 31.7098 116.636 31.6945 116.67 31.6627C116.704 31.6309 116.719 31.5909 116.713 31.5438C116.703 31.3212 116.65 31.1057 116.554 30.8973C116.46 30.6877 116.321 30.4993 116.139 30.3297C115.956 30.1602 115.727 30.0259 115.452 29.9246C115.177 29.8245 114.856 29.7739 114.491 29.7739C114.005 29.7739 113.602 29.8634 113.282 30.0436C112.962 30.2237 112.719 30.4746 112.555 30.7972C112.392 31.1211 112.302 31.4955 112.286 31.9242C112.28 32.1514 112.277 32.3905 112.277 32.639C112.277 32.8874 112.28 33.1206 112.286 33.3373C112.302 33.7659 112.392 34.1415 112.555 34.4642C112.719 34.7869 112.962 35.0377 113.282 35.2179C113.602 35.398 114.005 35.4875 114.491 35.4875C114.856 35.4875 115.177 35.4369 115.452 35.3368C115.727 35.2367 115.956 35.1013 116.139 34.9317C116.321 34.7633 116.46 34.5737 116.554 34.3653C116.65 34.1557 116.703 33.9402 116.713 33.7176C116.719 33.6705 116.704 33.6305 116.67 33.5987C116.636 33.5669 116.594 33.5516 116.547 33.5516Z" fill="#25CE49"/>
<path d="M51.5226 24.821V6.90886H48.6988V26.0846H59.4147V24.821H51.5226Z" fill="#068FFF"/>
<path d="M69.0226 6.90886H66.0045L67.036 9.37235L60.0082 26.0846H61.5685L67.7968 11.1905L74.1415 26.0846H77.1208L69.0226 6.90886Z" fill="#068FFF"/>
<path d="M91.5697 16.4837C90.6029 15.4993 89.105 14.861 87.0761 14.569V14.5431C87.9016 14.4395 88.5928 14.2699 89.1522 14.0332C89.7103 13.7977 90.1578 13.5174 90.4934 13.1948C90.8278 12.8733 91.0692 12.5177 91.2153 12.1314C91.3613 11.744 91.4343 11.3495 91.4343 10.9444C91.4343 10.3344 91.3201 9.77979 91.0928 9.28168C90.8643 8.78238 90.5123 8.35728 90.0353 8.00518C89.5584 7.65191 88.9473 7.38106 88.2042 7.19265C87.46 7.00306 86.5732 6.90886 85.5417 6.90886H79.5443V26.0846H85.6441C87.0113 26.0846 88.163 25.9362 89.1003 25.6394C90.0377 25.3427 90.7961 24.9364 91.3766 24.4206C91.9571 23.9049 92.3764 23.2984 92.6343 22.6025C92.8921 21.9065 93.0205 21.1587 93.0205 20.3592C93.0205 18.76 92.5365 17.4682 91.5697 16.4837ZM82.3693 8.1724H84.3029C84.9482 8.1724 85.5287 8.21715 86.0445 8.30782C86.5603 8.39849 86.9984 8.5504 87.3599 8.7659C87.7202 8.98022 87.9981 9.26637 88.1912 9.62318C88.3844 9.97998 88.4809 10.4204 88.4809 10.9444C88.4809 11.512 88.3738 11.9901 88.1595 12.3764C87.944 12.7638 87.6496 13.0747 87.2751 13.3114C86.9018 13.548 86.4614 13.72 85.9538 13.8271C85.4463 13.9343 84.8964 13.9885 84.3029 13.9885H82.3693V8.1724ZM89.5455 22.1644C89.3264 22.732 89.0085 23.2136 88.5916 23.6081C88.1736 24.0038 87.6566 24.3052 87.0372 24.5113C86.4178 24.7174 85.7089 24.821 84.9093 24.821H82.3693V15.252H83.1948C84.2087 15.252 85.1284 15.3509 85.9538 15.5488C86.7793 15.7466 87.4823 16.0469 88.0617 16.452C88.6423 16.8559 89.0897 17.3728 89.403 18.0052C89.7174 18.6375 89.874 19.3829 89.874 20.2426C89.874 20.9562 89.7645 21.5968 89.5455 22.1644Z" fill="#068FFF"/>
<path d="M96.5544 6.90886V26.0846H99.3912V6.90886H96.5544Z" fill="#068FFF"/>
<path d="M111.1 15.3297L116.671 6.90886H115.059L110.287 14.1168L105.555 6.90886H102.228L108.43 16.4131L102.074 26.0846H103.685L109.23 17.6637L114.749 26.0846H118.231L111.1 15.3297Z" fill="#068FFF"/>
<path d="M32.5506 22.3128C31.1646 21.9407 29.9293 21.2141 28.9484 20.2332C27.9663 19.2511 27.2386 18.017 26.8676 16.6298L26.1281 13.8707L26.1211 13.8436L23.6611 13.2748C20.7666 12.606 18.4762 10.3945 17.7061 7.52473L17.6861 7.44936L29.4089 10.59L32.5506 22.3128Z" fill="#25CE49"/>
<path d="M34.8622 30.9432L31.5815 34.224L28.7906 23.8083L33.2725 25.0094L34.8622 30.9432Z" fill="#068FFF"/>
<path d="M25.3721 20.3886L20.8903 19.1875L20.8738 19.1251L20.8114 19.1086L19.6656 14.8328L21.3012 15.2108C22.1691 15.411 22.9463 15.8384 23.5681 16.4308C24.2087 17.0396 24.6844 17.8215 24.9211 18.707L25.3721 20.3886Z" fill="#25CE49"/>
<path d="M40 24.3099L39.7292 24.2369C36.9548 23.4939 34.7892 21.3271 34.0462 18.5539L31.3825 8.61634L21.4461 5.95384C18.6729 5.21079 16.5061 3.04404 15.7631 0.270843L15.6901 0L34.8622 5.1366L40 24.3099Z" fill="#25CE49"/>
<path d="M18.1147 18.3855L13.634 17.1856L10.1201 4.07442L13.4008 0.793688L18.1147 18.3855Z" fill="#068FFF"/>
<path d="M20.0836 25.5146L15.5853 24.4136L15.5688 24.4089L14.3559 19.8811L18.8377 21.0822L18.8542 21.1446L18.9166 21.1611L20.0836 25.5146Z" fill="#068FFF"/>
<path d="M22.0419 32.8215L10.3191 29.6797L7.17852 17.9581L11.6592 19.1592L13.5999 26.399L13.6046 26.4166L20.7972 28.1783L22.0419 32.8215Z" fill="#068FFF"/>
<path d="M6.45549 15.2614L4.86576 9.32878L8.14649 6.04805L10.9374 16.4626L6.45549 15.2614Z" fill="#068FFF"/>
<path d="M2.89213 11.3024L3.76001 14.5384L0.522845 13.6717L2.89213 11.3024Z" fill="#068FFF"/>
<path d="M23.9661 40L5.06359 34.9352L0 16.0339L4.48187 17.235L8.3455 31.6533L22.765 35.5181L23.9661 40Z" fill="#068FFF"/>
<path d="M29.6079 36.1976L26.3283 39.4772L21.6133 21.8841L26.0952 23.0853L29.6079 36.1976Z" fill="#068FFF"/>
<path d="M39.2063 26.5992L36.837 28.9696L35.9692 25.7325L39.2063 26.5992Z" fill="#068FFF"/>
<path d="M20.0836 25.5146L15.5853 24.4136L18.8542 21.1446L18.9166 21.1611L20.0836 25.5146Z" fill="#0576D0"/>
<path d="M22.0419 32.8215L10.3191 29.6797L13.5999 26.399L13.6046 26.4166L20.7972 28.1783L22.0419 32.8215Z" fill="#0576D0"/>
<path d="M22.765 35.5181L23.9661 40L5.06359 34.9352L8.3455 31.6533L22.765 35.5181Z" fill="#0576D0"/>
<path d="M20.8903 19.1875L20.8738 19.1251L23.5681 16.4308C24.2087 17.0396 24.6844 17.8215 24.9211 18.707L25.3721 20.3886L20.8903 19.1875Z" fill="#1DA644"/>
<path d="M26.0952 23.0853L29.6079 36.1976L26.3283 39.4772L21.6133 21.8841L26.0952 23.0853Z" fill="#0576D0"/>
<path d="M26.8676 16.6298L26.1281 13.8707L29.4089 10.59L32.5506 22.3128C31.1646 21.9407 29.9293 21.2141 28.9484 20.2332C27.9663 19.2511 27.2386 18.017 26.8676 16.6298Z" fill="#1DA644"/>
<path d="M33.2725 25.0094L34.8622 30.9432L31.5815 34.224L28.7906 23.8083L33.2725 25.0094Z" fill="#0576D0"/>
<path d="M35.9692 25.7325L39.2063 26.5992L36.837 28.9696L35.9692 25.7325Z" fill="#0576D0"/>
<path d="M40 24.3099L39.7292 24.2369C36.9548 23.4939 34.7892 21.3271 34.0462 18.5539L31.3825 8.61634L34.8622 5.1366L40 24.3099Z" fill="#1DA644"/>
</g>
</g>
<defs>
<clipPath id="clip0_304_2902">
<rect width="118.231" height="40" fill="white"/>
</clipPath>
</defs>
</svg>
